<mxfile host="65bd71144e">
    <diagram id="6SJYaaIljj5iEJlTmHGJ" name="Page-1">
        <mxGraphModel dx="794" dy="398" grid="1" gridSize="10" guides="1" tooltips="1" connect="1" arrows="1" fold="1" page="1" pageScale="1" pageWidth="850" pageHeight="1100" math="0" shadow="0">
            <root>
                <mxCell id="0"/>
                <mxCell id="1" parent="0"/>
                <mxCell id="2" value="" style="shape=partialRectangle;whiteSpace=wrap;html=1;bottom=1;right=1;left=1;top=0;fillColor=none;routingCenterX=-0.5;" vertex="1" parent="1">
                    <mxGeometry x="330" y="70" width="180" height="125" as="geometry"/>
                </mxCell>
                <mxCell id="3" value="&lt;font style=&quot;font-size: 19px;&quot;&gt;call stack&lt;/font&gt;" style="rounded=1;whiteSpace=wrap;html=1;sketch=1;curveFitting=1;jiggle=2;strokeWidth=0;" vertex="1" parent="1">
                    <mxGeometry x="365" y="10" width="120" height="20" as="geometry"/>
                </mxCell>
                <mxCell id="4" value="function one" style="rounded=0;whiteSpace=wrap;html=1;sketch=1;strokeWidth=0;fontSize=19;fillColor=#f8cecc;strokeColor=#b85450;" vertex="1" parent="1">
                    <mxGeometry x="40" y="30" width="120" height="60" as="geometry"/>
                </mxCell>
                <mxCell id="5" value="function two" style="rounded=0;whiteSpace=wrap;html=1;sketch=1;strokeWidth=0;fontSize=19;fillColor=#f8cecc;strokeColor=#b85450;" vertex="1" parent="1">
                    <mxGeometry x="40" y="110" width="120" height="60" as="geometry"/>
                </mxCell>
                <mxCell id="6" value="function three" style="rounded=0;whiteSpace=wrap;html=1;sketch=1;strokeWidth=0;fontSize=19;fillColor=#f8cecc;strokeColor=#b85450;" vertex="1" parent="1">
                    <mxGeometry x="40" y="190" width="120" height="60" as="geometry"/>
                </mxCell>
                <mxCell id="7" value="function three" style="rounded=0;whiteSpace=wrap;html=1;sketch=1;strokeWidth=0;fontSize=19;fillColor=#f8cecc;strokeColor=#b85450;" vertex="1" parent="1">
                    <mxGeometry x="365" y="165" width="120" height="25" as="geometry"/>
                </mxCell>
                <mxCell id="8" value="function two" style="rounded=0;whiteSpace=wrap;html=1;sketch=1;strokeWidth=0;fontSize=19;fillColor=#f8cecc;strokeColor=#b85450;" vertex="1" parent="1">
                    <mxGeometry x="365" y="120" width="120" height="30" as="geometry"/>
                </mxCell>
                <mxCell id="9" value="function one" style="rounded=0;whiteSpace=wrap;html=1;sketch=1;strokeWidth=0;fontSize=19;fillColor=#f8cecc;strokeColor=#b85450;" vertex="1" parent="1">
                    <mxGeometry x="360" y="70" width="120" height="30" as="geometry"/>
                </mxCell>
                <mxCell id="10" value="last in first out" style="rounded=1;whiteSpace=wrap;html=1;sketch=1;strokeWidth=0;fontSize=19;" vertex="1" parent="1">
                    <mxGeometry x="320" y="210" width="190" height="60" as="geometry"/>
                </mxCell>
                <mxCell id="11" value="" style="shape=flexArrow;endArrow=classic;html=1;fontSize=19;" edge="1" parent="1">
                    <mxGeometry width="50" height="50" relative="1" as="geometry">
                        <mxPoint x="419.5" y="270" as="sourcePoint"/>
                        <mxPoint x="419.5" y="340" as="targetPoint"/>
                    </mxGeometry>
                </mxCell>
                <mxCell id="12" value="result" style="rounded=1;whiteSpace=wrap;html=1;sketch=1;strokeWidth=0;fontSize=19;" vertex="1" parent="1">
                    <mxGeometry x="330" y="280" width="80" height="30" as="geometry"/>
                </mxCell>
                <mxCell id="13" value="one&lt;br&gt;two&lt;br&gt;three" style="rounded=0;whiteSpace=wrap;html=1;sketch=1;strokeWidth=0;fontSize=19;" vertex="1" parent="1">
                    <mxGeometry x="365" y="340" width="120" height="70" as="geometry"/>
                </mxCell>
            </root>
        </mxGraphModel>
    </diagram>
</mxfile>